<?xml version="1.0" encoding="UTF-8" standalone="no"?>
<!DOCTYPE svg PUBLIC "-//W3C//DTD SVG 1.1//EN" "http://www.w3.org/Graphics/SVG/1.1/DTD/svg11.dtd">
<svg width="100%" height="100%" viewBox="0 0 2200 853" version="1.1" xmlns="http://www.w3.org/2000/svg" xmlns:xlink="http://www.w3.org/1999/xlink" xml:space="preserve" xmlns:serif="http://www.serif.com/" style="fill-rule:evenodd;clip-rule:evenodd;stroke-linejoin:round;stroke-miterlimit:2;">
    <g transform="matrix(1,0,0,1,-17122,-358)">
        <g id="Mesa-de-trabajo3" serif:id="Mesa de trabajo3" transform="matrix(0.981813,0,0,1,310.935458,-0.256667)">
            <rect x="17122.477" y="358.257" width="2240.277" height="852.184" style="fill:none;"/>
            <clipPath id="_clip1">
                <rect x="17122.477" y="358.257" width="2240.277" height="852.184"/>
            </clipPath>
            <g clip-path="url(#_clip1)">
                <g transform="matrix(8.487702,0,0,8.333333,10094.420895,-0)">
                    <g transform="matrix(1,0,0,1,835.4697,102.8287)">
                        <path d="M0,30.059C0,33.846 1.393,35.034 3.609,34.633C5.826,34.232 7.219,32.538 7.219,28.745L7.219,0.062C7.219,-3.731 5.826,-4.908 3.609,-4.487C1.393,-4.066 0,-2.362 0,1.425L0,30.059ZM-6.965,3.27C-6.965,-5.2 -3.229,-10.757 3.609,-12.068C10.448,-13.38 14.184,-9.233 14.184,-0.72L14.184,26.944C14.184,35.456 10.448,40.989 3.609,42.214C-3.229,43.439 -6.965,39.268 -6.965,30.798L-6.965,3.27Z" style="fill:white;fill-rule:nonzero;"/>
                    </g>
                    <g transform="matrix(1,0,0,1,868.8425,101.026)">
                        <path d="M0,22.578L0.126,22.555L4.812,-16.286L14.5,-18.142L14.5,35.476L7.915,36.656L7.915,-1.737L7.788,-1.713L3.102,37.519L-3.483,38.699L-8.549,1.894L-8.675,1.918L-8.675,39.63L-14.754,40.72L-14.754,-12.536L-5.066,-14.392L0,22.578Z" style="fill:white;fill-rule:nonzero;"/>
                    </g>
                    <g transform="matrix(1,0,0,1,895.0594,97.5231)">
                        <path d="M0,19.828L6.712,18.599L3.419,-8.009L3.292,-7.985L0,19.828ZM15.894,34.03L8.865,35.29L7.662,25.734L-0.887,27.285L-2.089,37.253L-8.485,38.4L-1.393,-16.618L8.802,-18.572L15.894,34.03Z" style="fill:white;fill-rule:nonzero;"/>
                    </g>
                    <g transform="matrix(1,0,0,1,921.1496,121.1838)">
                        <path d="M0,-37.819L0,-21.206L2.723,-21.713C5.319,-22.196 6.902,-23.884 6.902,-28.218L6.902,-33.558C6.902,-37.427 5.826,-38.925 3.356,-38.456L0,-37.819ZM7.599,7.179C7.219,5.855 6.966,5.048 6.966,0.637L6.966,-7.876C6.966,-12.906 5.573,-14.507 2.406,-13.923L0,-13.48L0,8.541L-6.965,9.79L-6.965,-44.211L3.546,-46.225C10.765,-47.609 13.867,-44.095 13.867,-35.724L13.867,-31.461C13.867,-25.88 12.411,-22.044 9.308,-19.687L9.308,-19.532C12.791,-18.394 13.931,-14.575 13.931,-8.916L13.931,-0.545C13.931,2.091 13.994,4.018 14.691,5.908L7.599,7.179Z" style="fill:white;fill-rule:nonzero;"/>
                    </g>
                    <g transform="matrix(1,0,0,1,969.6566,90.4974)">
                        <path d="M0,10.142L0,17.407C0,26.158 -3.546,31.793 -10.385,33.018C-17.223,34.243 -20.769,29.901 -20.769,21.192L-20.769,-7.112C-20.769,-15.821 -17.223,-21.478 -10.385,-22.789C-3.546,-24.101 0,-19.781 0,-11.03L0,-5.718L-6.585,-4.484L-6.585,-10.335C-6.585,-14.235 -7.978,-15.452 -10.194,-15.031C-12.411,-14.61 -13.804,-12.865 -13.804,-8.972L-13.804,20.468C-13.804,24.362 -12.411,25.512 -10.194,25.111C-7.978,24.71 -6.585,23.054 -6.585,19.154L-6.585,11.353L0,10.142Z" style="fill:white;fill-rule:nonzero;"/>
                    </g>
                    <g transform="matrix(1,0,0,1,980.2961,75.4857)">
                        <path d="M0,31.029C0,34.945 1.393,36.181 3.609,35.78C5.826,35.379 7.219,33.636 7.219,29.715L7.219,0.062C7.219,-3.859 5.826,-5.085 3.609,-4.664C1.393,-4.243 0,-2.49 0,1.425L0,31.029ZM-6.965,3.288C-6.965,-5.47 -3.229,-11.19 3.609,-12.502C10.448,-13.814 14.184,-9.502 14.184,-0.702L14.184,27.896C14.184,36.696 10.448,42.393 3.609,43.618C-3.229,44.843 -6.965,40.507 -6.965,31.749L-6.965,3.288Z" style="fill:white;fill-rule:nonzero;"/>
                    </g>
                    <g transform="matrix(1,0,0,1,1005.6268,113.2578)">
                        <path d="M0,-53.81L0,-11.277C0,-7.339 1.393,-6.173 3.609,-6.574C5.826,-6.975 7.218,-8.647 7.218,-12.592L7.218,-55.194L13.804,-56.456L13.804,-14.344C13.804,-5.495 10.258,0.197 3.419,1.421C-3.419,2.646 -6.966,-1.752 -6.966,-10.559L-6.966,-52.475L0,-53.81Z" style="fill:white;fill-rule:nonzero;"/>
                    </g>
                    <g transform="matrix(1,0,0,1,1031.1467,101.2715)">
                        <path d="M0,-38.793L0,-21.761L2.723,-22.268C5.319,-22.751 6.902,-24.474 6.902,-28.917L6.902,-34.392C6.902,-38.358 5.826,-39.899 3.356,-39.43L0,-38.793ZM7.599,7.375C7.219,6.015 6.966,5.187 6.966,0.665L6.966,-8.063C6.966,-13.219 5.573,-14.867 2.406,-14.284L0,-13.84L0,8.737L-6.965,9.985L-6.965,-45.38L3.546,-47.394C10.765,-48.778 13.868,-45.161 13.868,-36.579L13.868,-32.209C13.868,-26.487 12.411,-22.562 9.308,-20.16L9.308,-20.001C12.791,-18.819 13.931,-14.898 13.931,-9.096L13.931,-0.515C13.931,2.187 13.994,4.162 14.691,6.103L7.599,7.375Z" style="fill:white;fill-rule:nonzero;"/>
                    </g>
                    <g transform="matrix(1,0,0,1,1047.6128,101.6252)">
                        <path d="M0,-50.224L21.529,-54.35L21.529,-46.361L14.247,-44.978L14.247,2.878L7.282,4.126L7.282,-43.656L0,-42.273L0,-50.224Z" style="fill:white;fill-rule:nonzero;"/>
                    </g>
                    <g transform="matrix(1,0,0,1,1091.4954,102.8458)">
                        <path d="M0,-59.855L0,-51.987L-13.234,-9.288L0,-11.684L0,-3.655L-20.389,0L-20.389,-7.833L-7.155,-50.468L-19.756,-48.075L-19.756,-56.069L0,-59.855Z" style="fill:white;fill-rule:nonzero;"/>
                    </g>
                </g>
            </g>
        </g>
    </g>
</svg>
